<?xml version="1.0" encoding="utf-8"?>
<!-- Generator: Adobe Illustrator 16.0.0, SVG Export Plug-In . SVG Version: 6.00 Build 0)  -->
<!DOCTYPE svg PUBLIC "-//W3C//DTD SVG 1.1//EN" "http://www.w3.org/Graphics/SVG/1.1/DTD/svg11.dtd">
<svg version="1.1" id="Capa_1" xmlns="http://www.w3.org/2000/svg" xmlns:xlink="http://www.w3.org/1999/xlink" x="0px" y="0px"
	 width="32px" height="32px" viewBox="0 0 32 32" enable-background="new 0 0 32 32" xml:space="preserve">
<circle fill="#FFFFFF" cx="16" cy="15.915" r="16"/>
<path fill="#2F66AF" d="M20.754,21.242c-2.076,0-3.876-1.188-4.754-2.922c-0.878,1.733-2.677,2.922-4.754,2.922
	c-2.941,0-5.326-2.385-5.326-5.327c0-2.941,2.385-5.326,5.326-5.326c2.077,0,3.876,1.188,4.754,2.921
	c0.878-1.733,2.678-2.921,4.754-2.921c2.941,0,5.326,2.385,5.326,5.326C26.08,18.857,23.695,21.242,20.754,21.242z"/>
<path fill="#E72C81" d="M26.15,15.916c0,2.976-2.421,5.397-5.396,5.397c-2.977,0-5.397-2.421-5.397-5.397
	c0-2.976,2.421-5.397,5.397-5.397C23.729,10.518,26.15,12.94,26.15,15.916z"/>
</svg>
