<?xml version="1.0" encoding="utf-8"?>
<!-- Generator: Adobe Illustrator 16.0.0, SVG Export Plug-In . SVG Version: 6.00 Build 0)  -->
<!DOCTYPE svg PUBLIC "-//W3C//DTD SVG 1.1//EN" "http://www.w3.org/Graphics/SVG/1.1/DTD/svg11.dtd">
<svg version="1.1" id="Capa_1" xmlns="http://www.w3.org/2000/svg" xmlns:xlink="http://www.w3.org/1999/xlink" x="0px" y="0px"
	 width="32px" height="32px" viewBox="0 0 32 32" enable-background="new 0 0 32 32" xml:space="preserve">
<circle fill="#62C7F1" cx="16" cy="16" r="16"/>
<path fill="#FFFFFF" d="M24.047,13.243c0.234,5.22-3.658,11.039-10.548,11.039c-2.096,0-4.046-0.614-5.688-1.668
	c1.969,0.232,3.934-0.313,5.494-1.536c-1.624-0.03-2.995-1.104-3.467-2.577c0.581,0.11,1.153,0.079,1.676-0.063
	c-1.785-0.359-3.017-1.967-2.977-3.686c0.5,0.277,1.072,0.445,1.682,0.464c-1.653-1.104-2.121-3.287-1.148-4.955
	c1.829,2.245,4.563,3.723,7.648,3.877c-0.541-2.321,1.22-4.557,3.614-4.557c1.068,0,2.032,0.451,2.709,1.172
	c0.845-0.166,1.64-0.475,2.356-0.9c-0.277,0.867-0.865,1.594-1.632,2.053c0.751-0.089,1.466-0.289,2.132-0.584
	C25.401,12.066,24.771,12.72,24.047,13.243z"/>
</svg>
