<?xml version="1.0" encoding="utf-8"?>
<!-- Generator: Adobe Illustrator 16.0.0, SVG Export Plug-In . SVG Version: 6.00 Build 0)  -->
<!DOCTYPE svg PUBLIC "-//W3C//DTD SVG 1.1//EN" "http://www.w3.org/Graphics/SVG/1.1/DTD/svg11.dtd">
<svg version="1.1" id="Capa_1" xmlns="http://www.w3.org/2000/svg" xmlns:xlink="http://www.w3.org/1999/xlink" x="0px" y="0px"
	 width="32px" height="32px" viewBox="0 0 32 32" enable-background="new 0 0 32 32" xml:space="preserve">
<circle fill="#D1355A" cx="15.997" cy="16" r="15.997"/>
<path fill="#FFFFFF" d="M19.094,21.615c0-1.451-0.541-2.399-2.181-3.629c-1.663-1.212-2.069-1.897-0.482-3.125
	c0.895-0.691,1.521-1.614,1.521-2.751c0-1.24-0.506-2.365-1.46-2.912h1.352l1.15-1.208c0,0-4.337,0-5.148,0
	c-3.214,0-4.79,1.926-4.79,4.045c0,2.166,1.485,3.872,4.387,3.872c-0.45,0.908-0.27,1.747,0.467,2.346
	c-4.955,0-6.016,2.174-6.016,3.85c0,2.17,2.494,3.46,5.486,3.46C17.469,25.563,19.094,23.396,19.094,21.615z"/>
<path fill="#D1355A" d="M17.313,21.799c0,1.571-1.276,2.8-3.92,2.8c-2.067,0-3.561-1.309-3.561-2.881c0-1.54,1.752-2.87,3.819-2.847
	C15.946,18.871,17.313,20.299,17.313,21.799z"/>
<polygon fill="#FFFFFF" points="25.809,10.604 23.434,10.604 23.434,8.229 22.246,8.229 22.246,10.604 19.871,10.604 19.871,11.791 
	22.246,11.791 22.246,14.167 23.434,14.167 23.434,11.791 25.809,11.791 "/>
<path fill="#D1355A" d="M15.883,12.188c-0.239-1.822-1.427-3.317-2.813-3.359c-1.388-0.041-2.319,1.354-2.079,3.176
	c0.24,1.822,1.559,3.095,2.947,3.137C15.324,15.183,16.123,14.01,15.883,12.188z"/>
</svg>
