<?xml version="1.0" encoding="utf-8"?>
<!-- Generator: Adobe Illustrator 16.0.0, SVG Export Plug-In . SVG Version: 6.00 Build 0)  -->
<!DOCTYPE svg PUBLIC "-//W3C//DTD SVG 1.1//EN" "http://www.w3.org/Graphics/SVG/1.1/DTD/svg11.dtd">
<svg version="1.1" id="Capa_1" xmlns="http://www.w3.org/2000/svg" xmlns:xlink="http://www.w3.org/1999/xlink" x="0px" y="0px"
	 width="32px" height="32px" viewBox="0 0 32 32" enable-background="new 0 0 32 32" xml:space="preserve">
<circle fill="#0070B4" cx="15.915" cy="15.916" r="15.916"/>
<rect x="8.175" y="12.32" fill="#FFFFFF" width="3.494" height="11.29"/>
<ellipse fill="#FFFFFF" cx="9.905" cy="8.759" rx="2.066" ry="2.083"/>
<path fill="#FFFFFF" d="M24.765,23.61h-3.478c0,0,0-4.301,0-5.926c0-1.626-0.617-2.533-1.902-2.533c-1.398,0-2.13,0.945-2.13,2.533
	c0,1.738,0,5.926,0,5.926h-3.352V12.32h3.352v1.521c0,0,1.009-1.865,3.402-1.865s4.107,1.462,4.107,4.486
	C24.765,19.485,24.765,23.61,24.765,23.61z"/>
</svg>
