<?xml version="1.0" encoding="utf-8"?>
<!-- Generator: Adobe Illustrator 16.0.0, SVG Export Plug-In . SVG Version: 6.00 Build 0)  -->
<!DOCTYPE svg PUBLIC "-//W3C//DTD SVG 1.1//EN" "http://www.w3.org/Graphics/SVG/1.1/DTD/svg11.dtd">
<svg version="1.1" id="Capa_1" xmlns="http://www.w3.org/2000/svg" xmlns:xlink="http://www.w3.org/1999/xlink" x="0px" y="0px"
	 width="32px" height="32px" viewBox="0 0 32 32" enable-background="new 0 0 32 32" xml:space="preserve">
<circle fill="#CA161A" cx="15.915" cy="15.916" r="15.916"/>
<path fill="#FFFFFF" d="M18.003,21.154c-1.243,0-2.413-0.673-2.813-1.436c0,0-0.669,2.653-0.811,3.166
	c-0.498,1.81-1.965,3.621-2.079,3.77c-0.079,0.103-0.255,0.071-0.273-0.066c-0.032-0.23-0.406-2.515,0.034-4.377
	c0.221-0.936,1.481-6.276,1.481-6.276s-0.367-0.736-0.367-1.823c0-1.707,0.989-2.981,2.222-2.981c1.048,0,1.554,0.787,1.554,1.729
	c0,1.053-0.671,2.628-1.018,4.086c-0.289,1.223,0.613,2.219,1.818,2.219c2.182,0,3.652-2.803,3.652-6.124
	c0-2.524-1.7-4.415-4.793-4.415c-3.493,0-5.672,2.606-5.672,5.517c0,1.003,0.297,1.712,0.761,2.259
	c0.213,0.252,0.243,0.353,0.166,0.642c-0.057,0.212-0.183,0.722-0.235,0.925c-0.076,0.291-0.313,0.396-0.577,0.287
	c-1.608-0.656-2.358-2.418-2.358-4.4c0-3.272,2.76-7.196,8.231-7.196c4.399,0,7.293,3.182,7.293,6.599
	C24.219,17.778,21.706,21.154,18.003,21.154z"/>
</svg>
