<?xml version="1.0" encoding="utf-8"?>
<!-- Generator: Adobe Illustrator 16.0.0, SVG Export Plug-In . SVG Version: 6.00 Build 0)  -->
<!DOCTYPE svg PUBLIC "-//W3C//DTD SVG 1.1//EN" "http://www.w3.org/Graphics/SVG/1.1/DTD/svg11.dtd">
<svg version="1.1" id="Capa_1" xmlns="http://www.w3.org/2000/svg" xmlns:xlink="http://www.w3.org/1999/xlink" x="0px" y="0px"
	 width="32px" height="32px" viewBox="0 0 32 32" enable-background="new 0 0 32 32" xml:space="preserve">
<circle fill="#CD2A1E" cx="15.999" cy="16" r="16"/>
<path fill="#FFFFFF" d="M15.444,7.604c0.865,0,1.534,0.644,1.534,1.542v2.813c0,0.964-0.676,1.538-1.534,1.538
	c-1.034,0-1.563-0.527-1.563-1.538V9.146C13.881,8.225,14.504,7.604,15.444,7.604z"/>
<path fill="#FFFFFF" d="M24.813,23.323c0,1.352-1.095,2.446-2.446,2.446H9.79c-1.352,0-2.447-1.095-2.447-2.446v-6.181
	c0-1.351,1.096-2.447,2.447-2.447h12.576c1.352,0,2.446,1.096,2.446,2.447V23.323z"/>
<path fill="#CD2A1E" d="M18.456,18.404c-0.362,0-0.674,0.23-0.902,0.51v-2.385h-1.026v7.409h1.026v-0.419
	c0.283,0.353,0.593,0.489,0.965,0.489c0.676,0,0.93-0.525,0.93-1.201v-3.033C19.448,19.033,19.201,18.404,18.456,18.404z"/>
<path fill="#FFFFFF" d="M18.402,22.658c0,0.174-0.029,0.299-0.089,0.376c-0.111,0.147-0.354,0.14-0.52,0.056
	c-0.077-0.039-0.158-0.104-0.24-0.191v-3.406c0.068-0.075,0.138-0.131,0.209-0.166c0.178-0.09,0.408-0.073,0.531,0.09
	c0.071,0.094,0.108,0.234,0.108,0.419V22.658L18.402,22.658z"/>
<path fill="#CD2A1E" d="M14.979,11.91V9.24c0-0.314,0.145-0.547,0.444-0.547c0.327,0,0.467,0.226,0.467,0.547v2.67
	c0,0.313-0.159,0.543-0.446,0.543C15.149,12.453,14.979,12.212,14.979,11.91z"/>
<path fill="#CD2A1E" d="M14.52,18.473h1.017v5.465H14.52v-0.603c-0.188,0.222-0.382,0.392-0.585,0.508
	c-0.547,0.313-1.299,0.308-1.299-0.802v-4.568h1.016v4.189c0,0.221,0.055,0.369,0.271,0.369c0.198,0,0.474-0.254,0.598-0.41V18.473z
	"/>
<polygon fill="#CD2A1E" points="12.649,17.604 11.466,17.604 11.466,23.938 10.321,23.938 10.321,17.604 9.137,17.604 9.137,16.529 
	12.649,16.529 12.649,17.604 "/>
<path fill="#CD2A1E" d="M21.758,18.334c-0.917,0-1.543,0.659-1.543,1.608v2.453c0,0.983,0.495,1.69,1.466,1.69
	c1.07,0,1.523-0.637,1.523-1.69v-0.411h-1.046v0.381c0,0.476-0.024,0.764-0.454,0.764c-0.409,0-0.443-0.354-0.443-0.764v-1.031
	h1.943v-1.392C23.204,18.954,22.732,18.334,21.758,18.334z"/>
<path fill="#FFFFFF" d="M22.158,20.485h-0.897v-0.553c0-0.376,0.077-0.642,0.453-0.642c0.365,0,0.444,0.271,0.444,0.642V20.485
	L22.158,20.485z"/>
<path fill="#FFFFFF" d="M17.884,7.65h1.067v4.4c0,0.231,0.056,0.386,0.284,0.386c0.208,0,0.498-0.267,0.628-0.43V7.651h1.066v5.738
	h-1.066v-0.633c-0.463,0.548-0.911,0.716-1.233,0.716c-0.572,0-0.746-0.458-0.746-1.025V7.65L17.884,7.65z"/>
<polygon fill="#FFFFFF" points="11.116,5.61 11.944,8.719 12.715,5.61 13.935,5.61 12.537,10.234 12.537,13.39 11.335,13.39 
	11.335,10.234 9.906,5.61 "/>
</svg>
