<?xml version="1.0" encoding="utf-8"?>
<!-- Generator: Adobe Illustrator 16.0.0, SVG Export Plug-In . SVG Version: 6.00 Build 0)  -->
<!DOCTYPE svg PUBLIC "-//W3C//DTD SVG 1.1//EN" "http://www.w3.org/Graphics/SVG/1.1/DTD/svg11.dtd">
<svg version="1.1" id="Capa_1" xmlns="http://www.w3.org/2000/svg" xmlns:xlink="http://www.w3.org/1999/xlink" x="0px" y="0px"
	 width="32px" height="32px" viewBox="0 0 32 32" enable-background="new 0 0 32 32" xml:space="preserve">
<circle fill="#3D709E" cx="15.916" cy="15.916" r="15.916"/>
<path fill="#FFFFFF" d="M25.098,13.345h-5.229c0.532,0.749,0.848,1.664,0.848,2.652c0,2.529-2.051,4.58-4.581,4.58
	c-2.529,0-4.58-2.051-4.58-4.58c0-0.989,0.314-1.903,0.848-2.652H7.197v8.027c0,1.955,1.586,3.539,3.541,3.539h10.818
	c1.956,0,3.541-1.584,3.541-3.539V13.345z"/>
<path fill="#FFFFFF" d="M16.136,19.526c1.946,0,3.528-1.584,3.528-3.529c0-1.056-0.467-2.004-1.205-2.652
	c-0.259-0.227-0.551-0.416-0.867-0.561c-0.444-0.202-0.938-0.315-1.456-0.315s-1.011,0.114-1.456,0.315
	c-0.316,0.145-0.608,0.334-0.867,0.561c-0.738,0.648-1.205,1.596-1.205,2.652C12.607,17.942,14.19,19.526,16.136,19.526z"/>
<path fill="#FFFFFF" d="M25.098,10.459c0-1.955-1.586-3.54-3.541-3.54h-9.674v4.463h-0.726V6.919h-0.419
	c-0.027,0-0.055,0.001-0.082,0.001v4.461H9.93V7.013C9.755,7.054,9.584,7.108,9.42,7.174v4.208H8.693V7.57
	c-0.904,0.641-1.496,1.696-1.496,2.889v2.325h5.676c0.83-0.843,1.985-1.367,3.263-1.367s2.433,0.523,3.263,1.367h5.698
	L25.098,10.459L25.098,10.459z"/>
<path fill="#3D709E" d="M23.479,8.967v1.956c0,0.313-0.255,0.568-0.568,0.568h-1.913c-0.314,0-0.568-0.254-0.568-0.568V8.967
	c0-0.313,0.254-0.568,0.568-0.568h1.913C23.225,8.399,23.479,8.654,23.479,8.967z"/>
<circle fill="#3D709E" cx="16.147" cy="15.997" r="2.607"/>
</svg>
